<svg xmlns="http://www.w3.org/2000/svg" width="36" height="36" viewBox="0 0 36 36" fill="none"><g clip-path="url(#clip0_235_14787)">
<path d="M0 18C0 8.05888 8.05888 0 18 0C27.9411 0 36 8.05888 36 18C36 27.9411 27.9411 36 18 36C8.05888 36 0 27.9411 0 18Z" fill="#0F8AFF"></path>
<path d="M15 -10L27 27.5L-31 16.5L15 -10Z" fill="url(#paint0_linear_235_14787)"></path>
<circle cx="23" cy="23.5" r="4" fill="white"></circle>
<g filter="url(#filter0_f_235_14787)">
<circle cx="23" cy="23.5" r="4" fill="white"></circle>
</g>
</g><defs>
<filter id="filter0_f_235_14787" x="9" y="9.5" width="28" height="28" filterUnits="userSpaceOnUse" color-interpolation-filters="sRGB">
<feFlood flood-opacity="0" result="BackgroundImageFix"></feFlood>
<feBlend mode="normal" in="SourceGraphic" in2="BackgroundImageFix" result="shape"></feBlend>
<feGaussianBlur stdDeviation="5" result="effect1_foregroundBlur_235_14787"></feGaussianBlur>
</filter>
<linearGradient id="paint0_linear_235_14787" x1="2.50003" y1="6.00001" x2="23" y2="24.5" gradientUnits="userSpaceOnUse">
<stop stop-color="white"></stop>
<stop offset="1" stop-color="#0F8AFF" stop-opacity="0"></stop>
</linearGradient>
<clipPath id="clip0_235_14787">
<path d="M0 18C0 8.05888 8.05888 0 18 0C27.9411 0 36 8.05888 36 18C36 27.9411 27.9411 36 18 36C8.05888 36 0 27.9411 0 18Z" fill="white"></path>
</clipPath>
</defs><style>@media (prefers-color-scheme: light) { :root { filter: none; } }
@media (prefers-color-scheme: dark) { :root { filter: none; } }
</style></svg>